<svg width="174" height="26" viewBox="0 0 174 26" fill="none" xmlns="http://www.w3.org/2000/svg">
<ellipse cx="166.782" cy="12.8262" rx="12.8262" ry="6.94924" transform="rotate(90 166.782 12.8262)" fill="#17181E"/>
<ellipse cx="146.804" cy="12.8262" rx="12.8262" ry="6.94924" transform="rotate(90 146.804 12.8262)" fill="#17181E"/>
<ellipse cx="126.824" cy="12.8262" rx="12.8262" ry="6.94924" transform="rotate(90 126.824 12.8262)" fill="#17181E"/>
<ellipse cx="106.847" cy="12.8262" rx="12.8262" ry="6.94924" transform="rotate(90 106.847 12.8262)" fill="#17181E"/>
<ellipse cx="86.8664" cy="12.8262" rx="12.8262" ry="6.94924" transform="rotate(90 86.8664 12.8262)" fill="#17181E"/>
<ellipse cx="66.8867" cy="12.8262" rx="12.8262" ry="6.94924" transform="rotate(90 66.8867 12.8262)" fill="#17181E"/>
<ellipse cx="46.907" cy="12.8262" rx="12.8262" ry="6.94924" transform="rotate(90 46.907 12.8262)" fill="#17181E"/>
<ellipse cx="26.9282" cy="12.8262" rx="12.8262" ry="6.94924" transform="rotate(90 26.9282 12.8262)" fill="#17181E"/>
<ellipse cx="6.94969" cy="12.8262" rx="12.8262" ry="6.94924" transform="rotate(90 6.94969 12.8262)" fill="#17181E"/>
</svg>
