<svg width="36" height="37" viewBox="0 0 36 37" fill="none" xmlns="http://www.w3.org/2000/svg">
<path d="M17.6597 24.0529C20.7076 24.0529 23.1784 21.5821 23.1784 18.5342C23.1784 15.4864 20.7076 13.0156 17.6597 13.0156C14.6119 13.0156 12.1411 15.4864 12.1411 18.5342C12.1411 21.5821 14.6119 24.0529 17.6597 24.0529Z" stroke="#22A6B3" stroke-width="1.4" stroke-miterlimit="10"/>
<path d="M23.7301 5.84375H11.5891C7.93172 5.84375 4.9668 8.80868 4.9668 12.4661V24.6071C4.9668 28.2645 7.93172 31.2294 11.5891 31.2294H23.7301C27.3875 31.2294 30.3525 28.2645 30.3525 24.6071V12.4661C30.3525 8.80868 27.3875 5.84375 23.7301 5.84375Z" stroke="#22A6B3" stroke-width="1.4" stroke-linecap="round" stroke-linejoin="round"/>
<path d="M24.8338 13.0182C25.7482 13.0182 26.4894 12.277 26.4894 11.3626C26.4894 10.4483 25.7482 9.70703 24.8338 9.70703C23.9195 9.70703 23.1782 10.4483 23.1782 11.3626C23.1782 12.277 23.9195 13.0182 24.8338 13.0182Z" fill="#22A6B3"/>
</svg>
