<svg width="30" height="30" viewBox="0 0 30 30" fill="none" xmlns="http://www.w3.org/2000/svg">
<path d="M14.4695 19.469C14.1766 19.7619 14.1766 20.2368 14.4695 20.5297C14.7624 20.8226 15.2373 20.8226 15.5302 20.5297L14.4695 19.469ZM19.9998 14.9993L20.5302 15.5297C20.8231 15.2368 20.8231 14.7619 20.5302 14.469L19.9998 14.9993ZM15.5302 9.46902C15.2373 9.17613 14.7624 9.17613 14.4695 9.46902C14.1766 9.76191 14.1766 10.2368 14.4695 10.5297L15.5302 9.46902ZM1.6665 14.2494C1.25229 14.2494 0.916504 14.5851 0.916504 14.9994C0.916504 15.4136 1.25229 15.7494 1.6665 15.7494L1.6665 14.2494ZM12.0571 28.079L11.7701 28.7719L12.0571 28.079ZM10.7498 23.3327C10.7498 22.9185 10.4141 22.5827 9.99984 22.5827C9.58562 22.5827 9.24984 22.9185 9.24984 23.3327H10.7498ZM10.2536 26.275L9.56066 26.562L10.2536 26.275ZM27.9702 26.5127L27.302 26.1722L27.9702 26.5127ZM26.5128 27.9693L26.1723 27.3011L26.5128 27.9693ZM26.5128 2.02933L26.8533 1.36107V1.36107L26.5128 2.02933ZM27.9702 3.48608L27.302 3.82658V3.82658L27.9702 3.48608ZM9.24984 6.66599C9.24984 7.08021 9.58562 7.41599 9.99984 7.41599C10.4141 7.41599 10.7498 7.08021 10.7498 6.66599H9.24984ZM15.5302 20.5297L20.5302 15.5297L19.4695 14.469L14.4695 19.469L15.5302 20.5297ZM20.5302 14.469L15.5302 9.46902L14.4695 10.5297L19.4695 15.5297L20.5302 14.469ZM19.9998 14.2493L1.6665 14.2494L1.6665 15.7494L19.9998 15.7493V14.2493ZM14.9998 2.41602H22.9998V0.916016H14.9998V2.41602ZM27.5832 6.99927V22.9993H29.0832V6.99927H27.5832ZM22.9998 27.5827H14.9998V29.0827H22.9998V27.5827ZM14.9998 27.5827C14.213 27.5827 13.6603 27.5823 13.2268 27.5527C12.8 27.5236 12.5438 27.4688 12.3441 27.3861L11.7701 28.7719C12.1831 28.9429 12.6216 29.0149 13.1247 29.0492C13.6211 29.0831 14.2335 29.0827 14.9998 29.0827V27.5827ZM9.24984 23.3327C9.24984 24.099 9.24943 24.7113 9.28329 25.2076C9.31762 25.7106 9.38963 26.1491 9.56066 26.562L10.9465 25.9879C10.8638 25.7883 10.8089 25.5322 10.7798 25.1055C10.7502 24.6721 10.7498 24.1195 10.7498 23.3327H9.24984ZM12.3441 27.3861C11.7113 27.124 11.2088 26.6211 10.9465 25.9879L9.56066 26.562C9.97502 27.5623 10.7694 28.3574 11.7701 28.7719L12.3441 27.3861ZM27.5832 22.9993C27.5832 23.9451 27.5827 24.6094 27.5404 25.1277C27.4989 25.6373 27.4207 25.9392 27.302 26.1722L28.6385 26.8532C28.883 26.3733 28.9864 25.8518 29.0355 25.2496C29.0838 24.6562 29.0832 23.9202 29.0832 22.9993H27.5832ZM22.9998 29.0827C23.9209 29.0827 24.6567 29.0833 25.2501 29.0347C25.8523 28.9855 26.3735 28.8821 26.8533 28.6376L26.1723 27.3011C25.9391 27.4199 25.6372 27.4981 25.1279 27.5397C24.6098 27.5821 23.9456 27.5827 22.9998 27.5827V29.0827ZM27.302 26.1722C27.0545 26.6579 26.6588 27.0532 26.1723 27.3011L26.8533 28.6376C27.6212 28.2463 28.2468 27.6219 28.6385 26.8532L27.302 26.1722ZM22.9998 2.41602C23.9456 2.41602 24.6098 2.4166 25.1279 2.45894C25.6373 2.50056 25.9391 2.57877 26.1723 2.69758L26.8533 1.36107C26.3735 1.11658 25.8523 1.01313 25.2501 0.963921C24.6567 0.915432 23.9209 0.916016 22.9998 0.916016V2.41602ZM29.0832 6.99927C29.0832 6.0783 29.0838 5.34243 29.0355 4.74904C28.9863 4.14688 28.883 3.62554 28.6385 3.14559L27.302 3.82658C27.4207 4.05967 27.4989 4.3615 27.5404 4.87096C27.5827 5.38919 27.5832 6.05339 27.5832 6.99927H29.0832ZM26.1723 2.69758C26.6587 2.94541 27.0544 3.3408 27.302 3.82658L28.6385 3.14559C28.2468 2.37696 27.6213 1.7524 26.8533 1.36107L26.1723 2.69758ZM10.7498 6.66599C10.7498 5.87916 10.7502 5.3266 10.7798 4.89319C10.8089 4.46652 10.8638 4.21039 10.9465 4.01073L9.56066 3.4367C9.38963 3.8496 9.31762 4.28804 9.28329 4.79109C9.24943 5.28739 9.24984 5.89968 9.24984 6.66599H10.7498ZM14.9998 0.916016C14.2335 0.916016 13.6211 0.91561 13.1247 0.949471C12.6216 0.98379 12.183 1.0558 11.7701 1.22684L12.3441 2.61266C12.5438 2.52997 12.8 2.47511 13.2268 2.44599C13.6603 2.41642 14.213 2.41602 14.9998 2.41602V0.916016ZM10.9465 4.01073C11.2087 3.37757 11.7113 2.87478 12.3441 2.61266L11.7701 1.22684C10.7694 1.64134 9.97503 2.43634 9.56066 3.4367L10.9465 4.01073Z" fill="url(#paint0_linear_988_230)" fill-opacity="0.85"/>
<defs>
<linearGradient id="paint0_linear_988_230" x1="-2.23766" y1="1.94394" x2="57.1011" y2="48.7834" gradientUnits="userSpaceOnUse">
<stop stop-color="#22A6B3"/>
<stop offset="1" stop-color="#BADC58"/>
</linearGradient>
</defs>
</svg>
