<svg width="36" height="36" viewBox="0 0 36 36" fill="none" xmlns="http://www.w3.org/2000/svg">
<path d="M13.6224 22.0729C14.5367 22.0729 15.278 21.3317 15.278 20.4173C15.278 19.503 14.5367 18.7617 13.6224 18.7617C12.708 18.7617 11.9668 19.503 11.9668 20.4173C11.9668 21.3317 12.708 22.0729 13.6224 22.0729Z" fill="black"/>
<path d="M22.4525 22.0729C23.3668 22.0729 24.108 21.3317 24.108 20.4173C24.108 19.503 23.3668 18.7617 22.4525 18.7617C21.5381 18.7617 20.7969 19.503 20.7969 20.4173C20.7969 21.3317 21.5381 22.0729 22.4525 22.0729Z" fill="black"/>
<path d="M10.6426 11.5888C13.0352 10.8389 15.5302 10.4665 18.0375 10.485C20.5449 10.4665 23.0398 10.8389 25.4325 11.5888" stroke="#22A6B3" stroke-width="1.4" stroke-linecap="round" stroke-linejoin="round"/>
<path d="M25.4325 24.832C23.0398 25.5819 20.5449 25.9543 18.0375 25.9358C15.5302 25.9543 13.0352 25.5819 10.6426 24.832" stroke="#22A6B3" stroke-width="1.4" stroke-linecap="round" stroke-linejoin="round"/>
<path d="M21.7628 25.6719L23.4322 28.9831C23.5396 29.2089 23.7223 29.3902 23.9489 29.496C24.1755 29.6017 24.4319 29.6253 24.6739 29.5625C28.0541 28.7348 30.9789 27.2999 33.1036 25.4512C33.2638 25.3099 33.3801 25.1256 33.4388 24.9202C33.4975 24.7148 33.4961 24.4969 33.4347 24.2923L28.7577 8.67456C28.7122 8.51474 28.6298 8.36782 28.5172 8.24561C28.4046 8.12341 28.2648 8.02933 28.1093 7.97094C26.7879 7.42883 25.4213 7.0041 24.0255 6.70166C23.7572 6.64291 23.4767 6.68499 23.2375 6.81985C22.9983 6.95472 22.8172 7.17294 22.7286 7.43287L21.6387 10.7303" stroke="#22A6B3" stroke-width="1.4" stroke-linecap="round" stroke-linejoin="round"/>
<path d="M14.3127 25.6719L12.6433 28.9831C12.5359 29.2089 12.3532 29.3902 12.1266 29.496C11.9 29.6017 11.6437 29.6253 11.4016 29.5625C8.02148 28.7348 5.09661 27.2999 2.97194 25.4512C2.81175 25.3099 2.69543 25.1256 2.63675 24.9202C2.57806 24.7148 2.57948 24.4969 2.64082 24.2923L7.31785 8.67456C7.36337 8.51474 7.44575 8.36782 7.55837 8.24561C7.67098 8.12341 7.8107 8.02933 7.96629 7.97094C9.28767 7.42883 10.6542 7.0041 12.0501 6.70166C12.3183 6.64291 12.5988 6.68499 12.838 6.81985C13.0772 6.95472 13.2584 7.17294 13.3469 7.43287L14.4369 10.7303" stroke="#22A6B3" stroke-width="1.4" stroke-linecap="round" stroke-linejoin="round"/>
<path d="M13.6224 22.0729C14.5367 22.0729 15.278 21.3317 15.278 20.4173C15.278 19.503 14.5367 18.7617 13.6224 18.7617C12.708 18.7617 11.9668 19.503 11.9668 20.4173C11.9668 21.3317 12.708 22.0729 13.6224 22.0729Z" fill="#22A6B3"/>
<path d="M22.4525 22.0729C23.3668 22.0729 24.108 21.3317 24.108 20.4173C24.108 19.503 23.3668 18.7617 22.4525 18.7617C21.5381 18.7617 20.7969 19.503 20.7969 20.4173C20.7969 21.3317 21.5381 22.0729 22.4525 22.0729Z" fill="#22A6B3"/>
<path d="M10.6426 11.5888C13.0352 10.8389 15.5302 10.4665 18.0375 10.485C20.5449 10.4665 23.0398 10.8389 25.4325 11.5888" stroke="#22A6B3" stroke-width="1.4" stroke-linecap="round" stroke-linejoin="round"/>
<path d="M25.4325 24.832C23.0398 25.5819 20.5449 25.9543 18.0375 25.9358C15.5302 25.9543 13.0352 25.5819 10.6426 24.832" stroke="#22A6B3" stroke-width="1.4" stroke-linecap="round" stroke-linejoin="round"/>
<path d="M21.7628 25.6719L23.4322 28.9831C23.5396 29.2089 23.7223 29.3902 23.9489 29.496C24.1755 29.6017 24.4319 29.6253 24.6739 29.5625C28.0541 28.7348 30.9789 27.2999 33.1036 25.4512C33.2638 25.3099 33.3801 25.1256 33.4388 24.9202C33.4975 24.7148 33.4961 24.4969 33.4347 24.2923L28.7577 8.67456C28.7122 8.51474 28.6298 8.36782 28.5172 8.24561C28.4046 8.12341 28.2648 8.02933 28.1093 7.97094C26.7879 7.42883 25.4213 7.0041 24.0255 6.70166C23.7572 6.64291 23.4767 6.68499 23.2375 6.81985C22.9983 6.95472 22.8172 7.17294 22.7286 7.43287L21.6387 10.7303" stroke="#22A6B3" stroke-width="1.4" stroke-linecap="round" stroke-linejoin="round"/>
<path d="M14.3127 25.6719L12.6433 28.9831C12.5359 29.2089 12.3532 29.3902 12.1266 29.496C11.9 29.6017 11.6437 29.6253 11.4016 29.5625C8.02148 28.7348 5.09661 27.2999 2.97194 25.4512C2.81175 25.3099 2.69543 25.1256 2.63675 24.9202C2.57806 24.7148 2.57948 24.4969 2.64082 24.2923L7.31785 8.67456C7.36337 8.51474 7.44575 8.36782 7.55837 8.24561C7.67098 8.12341 7.8107 8.02933 7.96629 7.97094C9.28767 7.42883 10.6542 7.0041 12.0501 6.70166C12.3183 6.64291 12.5988 6.68499 12.838 6.81985C13.0772 6.95472 13.2584 7.17294 13.3469 7.43287L14.4369 10.7303" stroke="#22A6B3" stroke-width="1.4" stroke-linecap="round" stroke-linejoin="round"/>
</svg>
