<svg width="41" height="38" viewBox="0 0 41 38" fill="none" xmlns="http://www.w3.org/2000/svg">
<path d="M35.4848 12.665L34.8615 13.7854L34.8615 13.7854L35.4848 12.665ZM36.163 13.0423L36.7863 11.9219V11.9219L36.163 13.0423ZM39.2086 18.2077L40.4907 18.2048V18.2048L39.2086 18.2077ZM39.2109 19.2487L37.9288 19.2516V19.2516L39.2109 19.2487ZM36.1571 24.4455L36.7786 25.5669H36.7786L36.1571 24.4455ZM35.4875 24.8166L34.8661 23.6952L35.4875 24.8166ZM33.3562 28.505L34.6381 28.4834L33.3562 28.505ZM33.3694 29.2914L32.0875 29.313L33.3694 29.2914ZM30.4189 34.5165L31.0625 35.6253L31.0625 35.6253L30.4189 34.5165ZM29.5158 35.0406L28.8722 33.9318L28.8722 33.9318L29.5158 35.0406ZM23.4909 34.996L22.831 36.0952H22.831L23.4909 34.996ZM22.8315 34.6001L23.4914 33.5009H23.4914L22.8315 34.6001ZM18.5685 34.5976L17.9099 33.4976L18.5685 34.5976ZM17.9132 34.99L18.5719 36.09L17.9132 34.99ZM11.91 35.0404L11.2698 36.1513H11.2698L11.91 35.0404ZM10.9957 34.5135L11.6358 33.4027L10.9957 34.5135ZM8.02968 29.2789L9.3116 29.3005L8.02968 29.2789ZM8.04242 28.5242L6.76051 28.5025L8.04242 28.5242ZM5.89914 24.8077L5.27585 25.9281H5.27585L5.89914 24.8077ZM5.23552 24.4385L5.85881 23.3181H5.85881L5.23552 24.4385ZM2.19053 19.2734L3.47263 19.2704L2.19053 19.2734ZM2.18817 18.2323L0.906068 18.2352L2.18817 18.2323ZM5.24185 13.0354L4.6204 11.914H4.6204L5.24185 13.0354ZM5.91144 12.6644L6.5329 13.7858L5.91144 12.6644ZM8.04201 8.97607L6.76009 8.99763V8.99763L8.04201 8.97607ZM8.02878 8.18963L9.3107 8.16806V8.16806L8.02878 8.18963ZM10.9794 2.9645L10.3358 1.85563V1.85563L10.9794 2.9645ZM11.8825 2.44034L12.5261 3.54921L11.8825 2.44034ZM17.9078 2.48488L18.5677 1.38566V1.38566L17.9078 2.48488ZM18.5672 2.88077L17.9073 3.97999L18.5672 2.88077ZM22.8297 2.88333L22.1711 1.78334V1.78334L22.8297 2.88333ZM23.485 2.49098L24.1436 3.59097L23.485 2.49098ZM29.4878 2.44057L28.8476 3.55143L29.4878 2.44057ZM30.4023 2.96755L31.0424 1.85669V1.85669L30.4023 2.96755ZM33.3692 8.20184L32.0873 8.18027L32.0873 8.18027L33.3692 8.20184ZM33.3562 8.97409L34.6381 8.99566V8.99565L33.3562 8.97409ZM33.3538 9.21511L34.6358 9.19551L33.3538 9.21511ZM33.9108 11.1166L35.021 10.4753L33.9108 11.1166ZM33.792 10.9072L32.6618 11.5125L33.792 10.9072ZM32.4516 4.36438L33.4082 3.51075V3.51075L32.4516 4.36438ZM33.2233 5.72665L34.4471 5.34454L33.2233 5.72665ZM25.6959 1.38394L25.9767 2.63491L25.6959 1.38394ZM27.2579 1.37106L26.998 2.62655L27.2579 1.37106ZM20.9408 3.47007L20.8997 2.18863L20.9408 3.47007ZM22.6217 3.00519L23.2447 4.12574L22.6217 3.00519ZM18.7748 3.00321L18.1505 4.12308L18.7748 3.00321ZM20.4596 3.47007L20.5009 2.18863L20.4596 3.47007ZM14.1193 1.35953L14.3814 2.61455L14.1193 1.35953ZM15.6879 1.37106L15.4072 2.62206L15.6879 1.37106ZM8.17428 5.72213L9.39848 6.1031L8.17428 5.72213ZM8.94208 4.36266L7.98362 3.51111L8.94208 4.36266ZM7.48803 11.1151L8.59822 11.7564L7.48803 11.1151ZM7.60508 10.9087L6.47517 10.3029L7.60508 10.9087ZM8.04448 9.21332L9.32644 9.2323L8.04448 9.21332ZM6.1177 12.5477L5.46108 11.4465L6.1177 12.5477ZM7.36777 11.3195L6.27842 10.6434L7.36777 11.3195ZM2.37044 15.7538L3.58833 16.1544L2.37044 15.7538ZM3.16567 14.4011L4.10843 15.27H4.10843L3.16567 14.4011ZM3.17381 23.0789L2.23124 23.948H2.23124L3.17381 23.0789ZM2.38156 21.7353L1.16476 22.1392L2.38156 21.7353ZM7.49128 26.3811L8.60399 25.7442L7.49128 26.3811ZM7.36144 26.1586L6.27125 26.8334L7.36144 26.1586ZM6.12327 24.9348L5.46188 26.0331L6.12327 24.9348ZM8.04451 28.2696L6.76259 28.2915L8.04451 28.2696ZM7.61618 26.6029L8.74986 26.0041L7.61618 26.6029ZM8.94751 33.1164L7.99088 33.9701L8.94751 33.1164ZM8.17519 31.7542L9.39904 31.3722L8.17519 31.7542ZM15.7023 36.0969L15.9832 37.3479L15.7023 36.0969ZM14.1405 36.1099L13.8807 37.3654L14.1405 36.1099ZM20.4569 34.0109L20.4158 32.7294L20.4158 32.7294L20.4569 34.0109ZM18.7763 34.4758L19.3993 35.5963L18.7763 34.4758ZM22.6235 34.4776L23.2478 33.3577L22.6235 34.4776ZM20.9395 34.0109L20.9807 32.7294H20.9807L20.9395 34.0109ZM27.2787 36.1214L27.5408 37.3765L27.2787 36.1214ZM25.711 36.1097L25.9917 34.8587H25.9917L25.711 36.1097ZM33.2242 31.7588L34.4484 32.1398L33.2242 31.7588ZM32.4563 33.1183L33.4148 33.9698L32.4563 33.1183ZM33.91 26.3659L32.7998 25.7246L33.91 26.3659ZM33.7929 26.5723L32.663 25.9664L33.7929 26.5723ZM33.3538 28.2678L32.0718 28.2488L33.3538 28.2678ZM35.2805 24.9334L35.9371 26.0346L35.2805 24.9334ZM34.0308 26.1613L35.1202 26.8374L34.0308 26.1613ZM39.0277 21.7272L40.2456 22.1279L39.0277 21.7272ZM38.233 23.0798L37.2902 22.2109L38.233 23.0798ZM38.2244 14.4019L39.1669 13.5328L38.2244 14.4019ZM39.0169 15.7456L37.8001 16.1496L39.0169 15.7456ZM35.2759 12.5466L35.9348 11.4467L35.2759 12.5466ZM34.0332 11.3235L32.9441 12.0001L34.0332 11.3235ZM20.6993 24.8661C17.3162 24.8661 14.5737 22.1236 14.5737 18.7405H12.0095C12.0095 23.5398 15.9 27.4303 20.6993 27.4303V24.8661ZM14.5737 18.7405C14.5737 15.3575 17.3162 12.6149 20.6993 12.6149V10.0507C15.9 10.0507 12.0095 13.9413 12.0095 18.7405H14.5737ZM20.6993 12.6149C24.0823 12.6149 26.8249 15.3575 26.8249 18.7405H29.3891C29.3891 13.9413 25.4985 10.0507 20.6993 10.0507V12.6149ZM26.8249 18.7405C26.8249 22.1236 24.0823 24.8661 20.6993 24.8661V27.4303C25.4985 27.4303 29.3891 23.5398 29.3891 18.7405H26.8249ZM34.8615 13.7854L35.5397 14.1627L36.7863 11.9219L36.1081 11.5446L34.8615 13.7854ZM37.9265 18.2106L37.9288 19.2516L40.493 19.2458L40.4907 18.2048L37.9265 18.2106ZM35.5357 23.3241L34.8661 23.6952L36.109 25.938L36.7786 25.5669L35.5357 23.3241ZM32.0743 28.5265L32.0875 29.313L34.6513 29.2698L34.6381 28.4834L32.0743 28.5265ZM29.7753 33.4076L28.8722 33.9318L30.1594 36.1495L31.0625 35.6253L29.7753 33.4076ZM24.1509 33.8968L23.4914 33.5009L22.1716 35.6993L22.831 36.0952L24.1509 33.8968ZM17.9099 33.4976L17.2546 33.89L18.5719 36.09L19.2271 35.6976L17.9099 33.4976ZM12.5501 33.9295L11.6358 33.4027L10.3555 35.6244L11.2698 36.1513L12.5501 33.9295ZM9.3116 29.3005L9.32434 28.5458L6.76051 28.5025L6.74777 29.2572L9.3116 29.3005ZM6.52243 23.6873L5.85881 23.3181L4.61223 25.5589L5.27585 25.9281L6.52243 23.6873ZM3.47263 19.2704L3.47026 18.2294L0.906068 18.2352L0.908433 19.2763L3.47263 19.2704ZM5.8633 14.1568L6.5329 13.7858L5.28999 11.5429L4.6204 11.914L5.8633 14.1568ZM9.32393 8.9545L9.3107 8.16806L6.74686 8.2112L6.76009 8.99763L9.32393 8.9545ZM11.623 4.07337L12.5261 3.54921L11.2389 1.33147L10.3358 1.85563L11.623 4.07337ZM17.2479 3.5841L17.9073 3.97999L19.2272 1.78154L18.5677 1.38566L17.2479 3.5841ZM23.4883 3.98332L24.1436 3.59097L22.8263 1.39099L22.1711 1.78334L23.4883 3.98332ZM28.8476 3.55143L29.7621 4.07841L31.0424 1.85669L30.1279 1.32971L28.8476 3.55143ZM32.0873 8.18027L32.0743 8.95252L34.6381 8.99565L34.6511 8.2234L32.0873 8.18027ZM32.0743 8.95252C32.0724 9.06085 32.0705 9.14907 32.0719 9.2347L34.6358 9.19551C34.6353 9.16234 34.6359 9.12867 34.6381 8.99566L32.0743 8.95252ZM35.021 10.4753C34.9567 10.3639 34.9384 10.3319 34.9222 10.3018L32.6618 11.5125C32.7018 11.5872 32.7442 11.6602 32.8007 11.7579L35.021 10.4753ZM32.0719 9.2347C32.084 10.03 32.2861 10.811 32.6618 11.5125L34.9222 10.3018C34.7399 9.96135 34.6417 9.58208 34.6358 9.19551L32.0719 9.2347ZM29.7621 4.07841C30.9402 4.75728 31.268 4.96367 31.495 5.21801L33.4082 3.51075C32.8406 2.87468 32.0663 2.44669 31.0424 1.85669L29.7621 4.07841ZM34.6511 8.2234C34.671 7.04099 34.7011 6.15809 34.4471 5.34454L31.9994 6.10876C32.1011 6.43435 32.1101 6.82172 32.0873 8.18027L34.6511 8.2234ZM31.495 5.21801C31.7244 5.47512 31.8964 5.77877 31.9994 6.10876L34.4471 5.34454C34.2355 4.66677 33.8817 4.04135 33.4082 3.51075L31.495 5.21801ZM24.1436 3.59097C25.307 2.89434 25.645 2.70939 25.9767 2.63491L25.4151 0.132976C24.5853 0.319256 23.8372 0.785702 22.8263 1.391L24.1436 3.59097ZM30.1279 1.32971C29.106 0.740847 28.3502 0.287871 27.5177 0.115564L26.998 2.62655C27.3312 2.69552 27.6737 2.87495 28.8476 3.55143L30.1279 1.32971ZM25.9767 2.63491C26.3124 2.55956 26.6605 2.5567 26.998 2.62655L27.5177 0.115564C26.8239 -0.0280402 26.107 -0.0223635 25.4151 0.132976L25.9767 2.63491ZM20.7002 4.75408C20.8131 4.75408 20.8973 4.75423 20.9819 4.75151L20.8997 2.18863C20.8656 2.18972 20.8289 2.18988 20.7002 2.18988V4.75408ZM22.1711 1.78334C22.0664 1.84601 22.0303 1.86704 21.9987 1.88464L23.2447 4.12574C23.3169 4.08559 23.3858 4.04473 23.4883 3.98332L22.1711 1.78334ZM20.9819 4.75151C21.7754 4.72604 22.5511 4.51137 23.2447 4.12574L21.9987 1.88464C21.6616 2.07206 21.2848 2.17627 20.8997 2.18863L20.9819 4.75151ZM17.9073 3.97999C18.0032 4.03755 18.0761 4.08159 18.1505 4.12308L19.399 1.88334C19.3694 1.86683 19.3389 1.84864 19.2272 1.78154L17.9073 3.97999ZM20.7002 2.18988C20.5711 2.18988 20.535 2.18973 20.5009 2.18863L20.4184 4.75151C20.5033 4.75424 20.5871 4.75408 20.7002 4.75408V2.18988ZM18.1505 4.12308C18.8454 4.51042 19.6234 4.72594 20.4184 4.75151L20.5009 2.18863C20.1146 2.17621 19.7364 2.07142 19.399 1.88334L18.1505 4.12308ZM12.5261 3.54921C13.7036 2.86577 14.0471 2.68439 14.3814 2.61455L13.8572 0.104511C13.0215 0.279062 12.2634 0.736871 11.2389 1.33147L12.5261 3.54921ZM18.5677 1.38566C17.5526 0.776231 16.8017 0.306985 15.9685 0.120057L15.4072 2.62206C15.7404 2.69681 16.0801 2.88303 17.2479 3.5841L18.5677 1.38566ZM14.3814 2.61455C14.72 2.54384 15.07 2.5464 15.4072 2.62206L15.9685 0.120057C15.2739 -0.0357865 14.5537 -0.0409824 13.8572 0.104511L14.3814 2.61455ZM9.3107 8.16806C9.28793 6.81504 9.29735 6.42805 9.39848 6.1031L6.95009 5.34116C6.69766 6.15231 6.72702 7.03177 6.74686 8.2112L9.3107 8.16806ZM10.3358 1.85563C9.31614 2.44743 8.54796 2.87592 7.98362 3.51111L9.90054 5.2142C10.1265 4.9599 10.452 4.75297 11.623 4.07337L10.3358 1.85563ZM9.39848 6.1031C9.50068 5.77468 9.67186 5.4716 9.90054 5.2142L7.98362 3.51111C7.51316 4.04064 7.16067 4.66449 6.95009 5.34116L9.39848 6.1031ZM8.59822 11.7564C8.65387 11.66 8.69554 11.5882 8.73499 11.5146L6.47517 10.3029C6.45927 10.3325 6.4413 10.3639 6.37784 10.4738L8.59822 11.7564ZM6.76009 8.99763C6.76233 9.13092 6.763 9.16193 6.76252 9.19434L9.32644 9.2323C9.3277 9.14756 9.3257 9.05939 9.32393 8.9545L6.76009 8.99763ZM8.73499 11.5146C9.11161 10.8122 9.31464 10.0297 9.32644 9.2323L6.76252 9.19434C6.75679 9.58127 6.65826 9.96141 6.47517 10.3029L8.73499 11.5146ZM6.5329 13.7858C6.63346 13.73 6.70343 13.6912 6.77433 13.6489L5.46108 11.4465C5.4313 11.4643 5.3979 11.4831 5.28999 11.5429L6.5329 13.7858ZM6.37784 10.4738C6.31463 10.5832 6.29625 10.6147 6.27842 10.6434L8.45711 11.9956C8.50109 11.9247 8.54223 11.8533 8.59822 11.7564L6.37784 10.4738ZM6.77433 13.6489C7.45958 13.2403 8.03659 12.6732 8.45711 11.9956L6.27842 10.6434C6.07402 10.9727 5.79367 11.2482 5.46108 11.4465L6.77433 13.6489ZM3.47026 18.2294C3.46717 16.8667 3.48156 16.4789 3.58833 16.1544L1.15256 15.3531C0.885595 16.1645 0.903378 17.0506 0.906068 18.2352L3.47026 18.2294ZM4.6204 11.914C3.58384 12.4884 2.80177 12.9041 2.22291 13.5322L4.10843 15.27C4.34003 15.0187 4.67175 14.8172 5.86331 14.1568L4.6204 11.914ZM3.58833 16.1544C3.69623 15.8264 3.87365 15.5247 4.10843 15.27L2.22291 13.5322C1.74073 14.0553 1.37526 14.6761 1.15256 15.3531L3.58833 16.1544ZM5.85881 23.3181C4.67601 22.6601 4.34662 22.4595 4.11638 22.2098L2.23124 23.948C2.80687 24.5723 3.58382 24.9868 4.61223 25.5589L5.85881 23.3181ZM0.908433 19.2763C0.911105 20.4525 0.897172 21.3332 1.16476 22.1392L3.59837 21.3313C3.4914 21.0091 3.4757 20.6246 3.47263 19.2704L0.908433 19.2763ZM4.11638 22.2098C3.88322 21.957 3.70666 21.6575 3.59837 21.3313L1.16476 22.1392C1.38784 22.8112 1.75145 23.4277 2.23124 23.948L4.11638 22.2098ZM8.60399 25.7442C8.54396 25.6393 8.49934 25.561 8.45163 25.4839L6.27125 26.8334C6.29047 26.8644 6.31011 26.8984 6.37857 27.018L8.60399 25.7442ZM5.27585 25.9281C5.39716 25.9956 5.43083 26.0144 5.46188 26.0331L6.78465 23.8364C6.70678 23.7895 6.62699 23.7454 6.52243 23.6873L5.27585 25.9281ZM8.45163 25.4839C8.03497 24.8107 7.46416 24.2456 6.78465 23.8364L5.46188 26.0331C5.79099 26.2313 6.06829 26.5054 6.27125 26.8334L8.45163 25.4839ZM9.32434 28.5458C9.32638 28.425 9.32794 28.337 9.32642 28.2478L6.76259 28.2915C6.76321 28.3279 6.76278 28.3679 6.76051 28.5025L9.32434 28.5458ZM6.37857 27.018C6.44904 27.1411 6.46619 27.1708 6.48251 27.2017L8.74986 26.0041C8.70748 25.9239 8.66044 25.8428 8.60399 25.7442L6.37857 27.018ZM9.32642 28.2478C9.31307 27.4649 9.11545 26.6963 8.74986 26.0041L6.48251 27.2017C6.66017 27.5381 6.75611 27.9114 6.76259 28.2915L9.32642 28.2478ZM11.6358 33.4027C10.459 32.7245 10.1313 32.5175 9.90413 32.2628L7.99088 33.9701C8.55825 34.6059 9.3303 35.0336 10.3555 35.6244L11.6358 33.4027ZM6.74777 29.2572C6.72781 30.4392 6.69732 31.3226 6.95134 32.1363L9.39904 31.3722C9.29743 31.0467 9.28866 30.6597 9.3116 29.3005L6.74777 29.2572ZM9.90413 32.2628C9.67398 32.0049 9.50175 31.7012 9.39904 31.3722L6.95134 32.1363C7.16326 32.8151 7.5181 33.4402 7.99088 33.9701L9.90413 32.2628ZM17.2546 33.89C16.0913 34.5866 15.7533 34.7715 15.4215 34.8459L15.9832 37.3479C16.8129 37.1616 17.5609 36.6953 18.5719 36.09L17.2546 33.89ZM11.2698 36.1513C12.2922 36.7404 13.0483 37.1931 13.8807 37.3654L14.4004 34.8544C14.067 34.7854 13.7236 34.6058 12.5501 33.9295L11.2698 36.1513ZM15.4215 34.8459C15.0857 34.9213 14.7376 34.9242 14.4004 34.8544L13.8807 37.3654C14.5747 37.509 15.2914 37.5032 15.9832 37.3479L15.4215 34.8459ZM20.6976 32.7269C20.5846 32.7269 20.5005 32.7267 20.4158 32.7294L20.498 35.2923C20.5322 35.2912 20.5688 35.2911 20.6976 35.2911V32.7269ZM19.2271 35.6976C19.3333 35.634 19.3682 35.6136 19.3993 35.5963L18.1532 33.3552C18.0805 33.3957 18.011 33.4371 17.9099 33.4976L19.2271 35.6976ZM20.4158 32.7294C19.6221 32.7549 18.8467 32.9697 18.1532 33.3552L19.3993 35.5963C19.7365 35.4088 20.113 35.3047 20.4981 35.2923L20.4158 32.7294ZM23.4914 33.5009C23.3931 33.4419 23.3216 33.3989 23.2478 33.3577L21.9993 35.5975C22.0295 35.6143 22.0623 35.6337 22.1716 35.6993L23.4914 33.5009ZM20.6976 35.2911C20.8267 35.2911 20.8641 35.2912 20.8983 35.2923L20.9807 32.7294C20.8959 32.7267 20.8106 32.7269 20.6976 32.7269V35.2911ZM23.2478 33.3577C22.553 32.9704 21.7759 32.755 20.9807 32.7294L20.8983 35.2923C21.2844 35.3047 21.6618 35.4093 21.9993 35.5975L23.2478 33.3577ZM28.8722 33.9318C27.6949 34.6151 27.351 34.7966 27.0165 34.8664L27.5408 37.3765C28.3764 37.2019 29.1347 36.7442 30.1594 36.1495L28.8722 33.9318ZM22.831 36.0952C23.8465 36.7048 24.5973 37.1738 25.4304 37.3607L25.9917 34.8587C25.6585 34.7839 25.3183 34.5977 24.1509 33.8968L22.831 36.0952ZM27.0165 34.8664C26.6784 34.937 26.3293 34.9344 25.9917 34.8587L25.4304 37.3607C26.1246 37.5164 26.8438 37.522 27.5408 37.3765L27.0165 34.8664ZM32.0875 29.313C32.1103 30.6664 32.1011 31.053 32 31.3779L34.4484 32.1398C34.7008 31.3285 34.6712 30.4488 34.6513 29.2698L32.0875 29.313ZM31.0625 35.6253C32.0821 35.0336 32.8504 34.605 33.4148 33.9698L31.4979 32.2667C31.2719 32.521 30.9463 32.728 29.7753 33.4076L31.0625 35.6253ZM32 31.3779C31.8978 31.7062 31.7266 32.0092 31.4979 32.2667L33.4148 33.9698C33.8852 33.4403 34.2378 32.8166 34.4484 32.1398L32 31.3779ZM32.7998 25.7246C32.7442 25.8209 32.7025 25.8928 32.663 25.9664L34.9229 27.1781C34.9387 27.1485 34.9568 27.117 35.0202 27.0072L32.7998 25.7246ZM34.6381 28.4834C34.6359 28.3514 34.6353 28.3194 34.6357 28.2868L32.0718 28.2488C32.0706 28.3334 32.0725 28.4203 32.0743 28.5265L34.6381 28.4834ZM32.663 25.9664C32.2862 26.6691 32.0836 27.4519 32.0718 28.2488L34.6357 28.2868C34.6415 27.8995 34.74 27.5192 34.9229 27.1781L32.663 25.9664ZM34.8661 23.6952C34.7697 23.7485 34.6958 23.7892 34.6238 23.8322L35.9371 26.0346C35.9657 26.0175 35.9968 26.0001 36.109 25.938L34.8661 23.6952ZM35.0202 27.0072C35.0799 26.9039 35.1011 26.8681 35.1202 26.8374L32.9415 25.4852C32.8987 25.5541 32.8593 25.6217 32.7998 25.7246L35.0202 27.0072ZM34.6238 23.8322C33.9384 24.2409 33.3619 24.8078 32.9415 25.4852L35.1202 26.8374C35.3247 26.5079 35.6047 26.2328 35.9371 26.0346L34.6238 23.8322ZM37.9288 19.2516C37.9319 20.6127 37.9167 21.0017 37.8098 21.3266L40.2456 22.1279C40.5124 21.3168 40.4957 20.4321 40.493 19.2458L37.9288 19.2516ZM36.7786 25.5669C37.8154 24.9923 38.597 24.5768 39.1758 23.9487L37.2902 22.2109C37.0586 22.4623 36.727 22.6639 35.5357 23.3241L36.7786 25.5669ZM37.8098 21.3266C37.7017 21.6552 37.5246 21.9567 37.2902 22.2109L39.1758 23.9487C39.6584 23.4251 40.0231 22.8042 40.2456 22.1279L37.8098 21.3266ZM35.5397 14.1627C36.7222 14.8205 37.0515 15.0213 37.2818 15.271L39.1669 13.5328C38.5914 12.9086 37.8151 12.4943 36.7863 11.9219L35.5397 14.1627ZM40.4907 18.2048C40.488 17.0274 40.5012 16.1475 40.2337 15.3417L37.8001 16.1496C37.9071 16.4721 37.9234 16.8577 37.9265 18.2106L40.4907 18.2048ZM37.2818 15.271C37.5152 15.5241 37.6919 15.8237 37.8001 16.1496L40.2337 15.3417C40.0105 14.6694 39.6465 14.0529 39.1669 13.5328L37.2818 15.271ZM36.1081 11.5446C35.997 11.4828 35.9643 11.4644 35.9348 11.4467L34.6171 13.6464C34.6893 13.6897 34.762 13.7301 34.8615 13.7854L36.1081 11.5446ZM32.8007 11.7579C32.8617 11.8637 32.9012 11.931 32.9441 12.0001L35.1223 10.647C35.1026 10.6153 35.0806 10.5784 35.021 10.4753L32.8007 11.7579ZM35.9348 11.4467C35.6043 11.2488 35.3258 10.9746 35.1223 10.647L32.9441 12.0001C33.3627 12.674 33.9361 13.2385 34.6171 13.6464L35.9348 11.4467Z" fill="white"/>
</svg>
