<svg width="32" height="32" viewBox="0 0 32 32" fill="none" xmlns="http://www.w3.org/2000/svg">
<path d="M22.9694 8.5C22.9694 4.35786 19.8492 1 16.0002 1C12.1511 1 9.0309 4.35786 9.0309 8.5M28.9722 13.5137L30.5984 24.0137C30.9707 26.4173 31.1572 27.6191 30.834 28.5557C30.5503 29.3776 30.0083 30.0666 29.3016 30.5029C28.4962 31 27.3636 31 25.0992 31H6.90065C4.6363 31 3.50506 31 2.6997 30.5029C1.99296 30.0666 1.44977 29.3776 1.16609 28.5557C0.842815 27.6191 1.02921 26.4173 1.40147 24.0137L3.02763 13.5137C3.30349 11.7325 3.44187 10.8419 3.85485 10.1736C4.21889 9.58446 4.73035 9.11809 5.33019 8.82851C6.01066 8.5 6.84929 8.5 8.52726 8.5H23.4735C25.1515 8.5 25.99 8.5 26.6705 8.82851C27.2703 9.11809 27.7813 9.58446 28.1453 10.1736C28.5583 10.8419 28.6964 11.7325 28.9722 13.5137Z" stroke="url(#paint0_linear_197_1161)" stroke-opacity="0.85" stroke-width="1.5" stroke-linecap="round" stroke-linejoin="round"/>
<defs>
<linearGradient id="paint0_linear_197_1161" x1="-3.39219" y1="1.31267" x2="63.364" y2="54.007" gradientUnits="userSpaceOnUse">
<stop stop-color="#22A6B3"/>
<stop offset="1" stop-color="#BADC58"/>
</linearGradient>
</defs>
</svg>
