<svg width="31" height="29" viewBox="0 0 31 29" fill="none" xmlns="http://www.w3.org/2000/svg">
<path d="M27.143 9.71634L26.7784 10.3717H26.7784L27.143 9.71634ZM27.677 10.0134L28.0417 9.35803L27.677 10.0134ZM30.0753 14.081L30.8253 14.0793V14.0793L30.0753 14.081ZM30.0772 14.9008L29.3272 14.9025V14.9025L30.0772 14.9008ZM27.6724 18.9931L28.0359 19.6491L27.6724 18.9931ZM27.1451 19.2853L26.7816 18.6293L26.7816 18.6293L27.1451 19.2853ZM25.4668 22.1898L26.2166 22.1772V22.1772L25.4668 22.1898ZM25.4772 22.8091L24.7273 22.8217L25.4772 22.8091ZM23.1537 26.9237L23.5302 27.5723L23.5302 27.5723L23.1537 26.9237ZM22.4426 27.3364L22.0661 26.6878H22.0661L22.4426 27.3364ZM17.6982 27.3013L17.3121 27.9443L17.3121 27.9443L17.6982 27.3013ZM17.1789 26.9895L17.5649 26.3465H17.5649L17.1789 26.9895ZM13.8219 26.9876L13.4366 26.3441L13.8219 26.9876ZM13.3059 27.2965L13.6912 27.94H13.6912L13.3059 27.2965ZM8.5785 27.3363L8.20404 27.9861H8.20404L8.5785 27.3363ZM7.85852 26.9214L8.23298 26.2715L7.85852 26.9214ZM5.5229 22.7992L6.2728 22.8119L5.5229 22.7992ZM5.53294 22.2049L4.78304 22.1923L5.53294 22.2049ZM3.84517 19.2783L3.48056 19.9337H3.48056L3.84517 19.2783ZM3.32259 18.9876L3.6872 18.3322L3.6872 18.3322L3.32259 18.9876ZM0.92475 14.9202L1.67475 14.9185L0.92475 14.9202ZM0.922888 14.1004L0.17289 14.1021L0.922888 14.1004ZM3.32757 10.008L2.96404 9.352H2.96404L3.32757 10.008ZM3.85485 9.7158L4.21839 10.3718L3.85485 9.7158ZM5.53261 6.81139L4.78272 6.824L5.53261 6.81139ZM5.52219 6.19209L6.27209 6.17947L5.52219 6.19209ZM7.8457 2.07746L7.46922 1.4288L7.46922 1.4288L7.8457 2.07746ZM8.55687 1.6647L8.93335 2.31337V2.31337L8.55687 1.6647ZM13.3016 1.69977L13.6877 1.05675V1.05675L13.3016 1.69977ZM13.8209 2.01152L13.4349 2.65454L13.8209 2.01152ZM17.1775 2.01354L16.7922 1.37008V1.37008L17.1775 2.01354ZM17.6935 1.70458L18.0788 2.34805V2.34805L17.6935 1.70458ZM22.4205 1.66488L22.046 2.31471L22.4205 1.66488ZM23.1406 2.07986L23.5151 1.43004L23.1406 2.07986ZM25.477 6.2017L24.7271 6.18909V6.18909L25.477 6.2017ZM25.4668 6.80983L26.2166 6.82244V6.82244L25.4668 6.80983ZM25.4649 6.99962L26.2148 6.98816L25.4649 6.99962ZM25.9035 8.49702L26.553 8.12187L25.9035 8.49702ZM25.81 8.33206L25.1488 8.68616L25.81 8.33206ZM24.7544 3.17982L25.314 2.68047V2.68047L24.7544 3.17982ZM25.3621 4.25257L26.078 4.02905L25.3621 4.25257ZM19.4345 0.832821L19.5988 1.56461L19.4345 0.832821ZM20.6645 0.822674L20.5125 1.55711L20.6645 0.822674ZM15.69 2.47558L15.666 1.72597L15.69 2.47558ZM17.0137 2.1095L17.3781 2.765L17.0137 2.1095ZM13.9843 2.10794L13.6192 2.76304L13.9843 2.10794ZM15.3111 2.47558L15.3352 1.72597L15.3111 2.47558ZM10.3183 0.813595L10.4716 1.54775L10.3183 0.813595ZM11.5535 0.822674L11.3893 1.55448L11.5535 0.822674ZM5.63677 4.24901L6.3529 4.47187L5.63677 4.24901ZM6.24139 3.17847L5.68071 2.68033L6.24139 3.17847ZM5.09637 8.49578L5.74581 8.87093L5.09637 8.49578ZM5.18854 8.3333L4.52757 7.97888L5.18854 8.3333ZM5.53456 6.99821L6.28448 7.00932L5.53456 6.99821ZM4.01728 9.62394L3.63317 8.97977L4.01728 9.62394ZM5.00166 8.65677L4.36442 8.26126L5.00166 8.65677ZM1.06642 12.1486L1.77886 12.383L1.06642 12.1486ZM1.69264 11.0834L2.24414 11.5917H2.24414L1.69264 11.0834ZM1.69905 17.917L1.14767 18.4254H1.14767L1.69905 17.917ZM1.07518 16.8589L0.363381 17.0952L1.07518 16.8589ZM5.09893 20.5173L5.74984 20.1447L5.09893 20.5173ZM4.99668 20.3421L4.35894 20.7368L4.99668 20.3421ZM4.02166 19.3784L3.63476 20.0209L4.02166 19.3784ZM5.53458 22.0045L4.78469 22.0173L5.53458 22.0045ZM5.19729 20.692L5.86046 20.3417L5.19729 20.692ZM6.24566 25.8212L5.68606 26.3205L6.24566 25.8212ZM5.63749 24.7485L6.35341 24.525L5.63749 24.7485ZM11.5649 28.1682L11.7292 28.9L11.5649 28.1682ZM10.335 28.1785L10.183 28.9129L10.335 28.1785ZM15.309 26.5255L15.2849 25.7759L15.2849 25.7759L15.309 26.5255ZM13.9855 26.8916L14.35 27.5471L13.9855 26.8916ZM17.0151 26.8931L17.3803 26.238L17.0151 26.8931ZM15.689 26.5255L15.7131 25.7759H15.7131L15.689 26.5255ZM20.6809 28.1875L20.8342 28.9217L20.6809 28.1875ZM19.4464 28.1783L19.6106 27.4465L19.4464 28.1783ZM25.3628 24.7521L26.0789 24.975L25.3628 24.7521ZM24.7581 25.8226L25.3188 26.3208L24.7581 25.8226ZM25.9029 20.5054L25.2534 20.1302L25.9029 20.5054ZM25.8107 20.6678L25.1497 20.3134L25.8107 20.6678ZM25.4649 22.003L24.7149 21.9919L25.4649 22.003ZM26.9821 19.3773L27.3662 20.0214L26.9821 19.3773ZM25.998 20.3443L26.6352 20.7398L25.998 20.3443ZM29.9329 16.8525L30.6453 17.0869L29.9329 16.8525ZM29.3071 17.9177L28.7556 17.4094L29.3071 17.9177ZM29.3003 11.0841L29.8517 10.5757L29.3003 11.0841ZM29.9244 12.1422L29.2126 12.3785L29.9244 12.1422ZM26.9785 9.62305L27.3639 8.97966L26.9785 9.62305ZM25.9999 8.65994L25.3628 9.05569L25.9999 8.65994ZM15.4998 19.5839C12.6924 19.5839 10.4165 17.3081 10.4165 14.5006H8.91648C8.91648 18.1365 11.8639 21.0839 15.4998 21.0839V19.5839ZM10.4165 14.5006C10.4165 11.6932 12.6924 9.41727 15.4998 9.41727V7.91727C11.8639 7.91727 8.91648 10.8647 8.91648 14.5006H10.4165ZM15.4998 9.41727C18.3073 9.41727 20.5831 11.6932 20.5831 14.5006H22.0831C22.0831 10.8647 19.1357 7.91727 15.4998 7.91727V9.41727ZM20.5831 14.5006C20.5831 17.3081 18.3073 19.5839 15.4998 19.5839V21.0839C19.1357 21.0839 22.0831 18.1365 22.0831 14.5006H20.5831ZM26.7784 10.3717L27.3124 10.6688L28.0417 9.35803L27.5076 9.06093L26.7784 10.3717ZM29.3253 14.0827L29.3272 14.9025L30.8272 14.8991L30.8253 14.0793L29.3253 14.0827ZM27.3089 18.3371L26.7816 18.6293L27.5087 19.9413L28.0359 19.6491L27.3089 18.3371ZM24.7169 22.2024L24.7273 22.8217L26.2271 22.7965L26.2166 22.1772L24.7169 22.2024ZM22.7773 26.275L22.0661 26.6878L22.819 27.9851L23.5302 27.5723L22.7773 26.275ZM18.0842 26.6583L17.5649 26.3465L16.7929 27.6326L17.3121 27.9443L18.0842 26.6583ZM13.4366 26.3441L12.9206 26.6531L13.6912 27.94L14.2072 27.6311L13.4366 26.3441ZM8.95297 26.6864L8.23298 26.2715L7.48405 27.5712L8.20404 27.9861L8.95297 26.6864ZM6.2728 22.8119L6.28283 22.2176L4.78304 22.1923L4.77301 22.7866L6.2728 22.8119ZM4.20978 18.6229L3.6872 18.3322L2.95798 19.643L3.48056 19.9337L4.20978 18.6229ZM1.67475 14.9185L1.67289 14.0987L0.17289 14.1021L0.174752 14.9219L1.67475 14.9185ZM3.69111 10.664L4.21839 10.3718L3.49132 9.0598L2.96404 9.352L3.69111 10.664ZM6.28251 6.79877L6.27209 6.17947L4.7723 6.20471L4.78272 6.824L6.28251 6.79877ZM8.22218 2.72613L8.93335 2.31337L8.1804 1.01604L7.46922 1.4288L8.22218 2.72613ZM12.9156 2.3428L13.4349 2.65454L14.2069 1.3685L13.6877 1.05675L12.9156 2.3428ZM17.5628 2.65701L18.0788 2.34805L17.3082 1.06111L16.7922 1.37008L17.5628 2.65701ZM22.046 2.31471L22.7662 2.72969L23.5151 1.43004L22.795 1.01505L22.046 2.31471ZM24.7271 6.18909L24.7169 6.79721L26.2166 6.82244L26.2269 6.21432L24.7271 6.18909ZM24.7169 6.79721C24.7154 6.88502 24.714 6.94896 24.715 7.01109L26.2148 6.98816C26.2143 6.95673 26.2149 6.92469 26.2166 6.82244L24.7169 6.79721ZM26.553 8.12187C26.5031 8.03551 26.4862 8.00616 26.4711 7.97796L25.1488 8.68616C25.1779 8.74047 25.2088 8.79384 25.2541 8.87216L26.553 8.12187ZM24.715 7.01109C24.7239 7.59598 24.8725 8.17031 25.1488 8.68616L26.4711 7.97796C26.3079 7.67329 26.2201 7.33395 26.2148 6.98816L24.715 7.01109ZM22.7662 2.72969C23.6782 3.25528 23.9816 3.44024 24.1948 3.67918L25.314 2.68047C24.9015 2.21823 24.337 1.90364 23.5151 1.43004L22.7662 2.72969ZM26.2269 6.21432C26.2428 5.26537 26.2626 4.62028 26.078 4.02905L24.6462 4.47609C24.7416 4.78189 24.7448 5.1371 24.7271 6.18909L26.2269 6.21432ZM24.1948 3.67918C24.4002 3.90933 24.554 4.18103 24.6462 4.47609L26.078 4.02905C25.9223 3.53053 25.6622 3.07061 25.314 2.68047L24.1948 3.67918ZM18.0788 2.34805C18.9795 1.80872 19.2871 1.63458 19.5988 1.56461L19.2702 0.101034C18.6672 0.236404 18.1197 0.575215 17.3082 1.06111L18.0788 2.34805ZM22.795 1.01505C21.9749 0.542472 21.4215 0.213463 20.8165 0.0882389L20.5125 1.55711C20.8255 1.62188 21.137 1.79087 22.046 2.31471L22.795 1.01505ZM19.5988 1.56461C19.8992 1.49718 20.2107 1.49464 20.5125 1.55711L20.8165 0.0882389C20.3062 -0.0173776 19.7791 -0.0131927 19.2702 0.101034L19.5988 1.56461ZM15.5005 3.22708C15.591 3.22708 15.6525 3.22717 15.7141 3.2252L15.666 1.72597C15.634 1.72699 15.6003 1.72708 15.5005 1.72708V3.22708ZM16.7922 1.37008C16.71 1.4193 16.6783 1.43787 16.6492 1.454L17.3781 2.765C17.4309 2.73567 17.4818 2.7055 17.5628 2.65701L16.7922 1.37008ZM15.7141 3.2252C16.2976 3.20647 16.868 3.0486 17.3781 2.765L16.6492 1.454C16.3477 1.62166 16.0106 1.71491 15.666 1.72597L15.7141 3.2252ZM13.4349 2.65454C13.512 2.70083 13.5651 2.7329 13.6192 2.76304L14.3495 1.45284C14.3216 1.43732 14.2934 1.42038 14.2069 1.3685L13.4349 2.65454ZM15.5005 1.72708C15.4005 1.72708 15.3673 1.727 15.3352 1.72597L15.287 3.22519C15.3487 3.22718 15.4099 3.22708 15.5005 3.22708V1.72708ZM13.6192 2.76304C14.1302 3.04789 14.7024 3.20639 15.287 3.22519L15.3352 1.72597C14.9897 1.71486 14.6514 1.62113 14.3495 1.45284L13.6192 2.76304ZM8.93335 2.31337C9.84514 1.78417 10.1576 1.61335 10.4716 1.54775L10.1649 0.0794383C9.55762 0.206291 9.00265 0.538815 8.1804 1.01604L8.93335 2.31337ZM13.6877 1.05675C12.8728 0.567572 12.3231 0.22671 11.7177 0.0908671L11.3893 1.55448C11.7023 1.6247 12.0115 1.8 12.9156 2.3428L13.6877 1.05675ZM10.4716 1.54775C10.7745 1.4845 11.0876 1.48679 11.3893 1.55448L11.7177 0.0908671C11.2069 -0.0237361 10.6772 -0.0275615 10.1649 0.0794383L10.4716 1.54775ZM6.27209 6.17947C6.25446 5.13159 6.25795 4.77698 6.3529 4.47187L4.92065 4.02615C4.73719 4.61568 4.75638 5.25837 4.7723 6.20471L6.27209 6.17947ZM7.46922 1.4288C6.65095 1.90371 6.09085 2.2187 5.68071 2.68033L6.80207 3.6766C7.01425 3.43779 7.31541 3.2524 8.22218 2.72613L7.46922 1.4288ZM6.3529 4.47187C6.44435 4.17799 6.59751 3.90685 6.80207 3.6766L5.68071 2.68033C5.33472 3.06976 5.0755 3.52855 4.92065 4.02615L6.3529 4.47187ZM5.74581 8.87093C5.79042 8.7937 5.82083 8.74122 5.84952 8.68772L4.52757 7.97888C4.51267 8.00668 4.49612 8.0355 4.44693 8.12064L5.74581 8.87093ZM4.78272 6.824C4.78444 6.92609 4.7851 6.95629 4.78464 6.98711L6.28448 7.00932C6.28538 6.94789 6.28394 6.88425 6.28251 6.79877L4.78272 6.824ZM5.84952 8.68772C6.12649 8.17118 6.27579 7.59565 6.28448 7.00932L4.78464 6.98711C4.77951 7.33336 4.69134 7.67346 4.52757 7.97888L5.84952 8.68772ZM4.21839 10.3718C4.29833 10.3275 4.34972 10.2989 4.40139 10.2681L3.63317 8.97977C3.60555 8.99624 3.57555 9.01312 3.49132 9.0598L4.21839 10.3718ZM4.44693 8.12064C4.39789 8.20554 4.38111 8.23438 4.36442 8.26126L5.63891 9.05227C5.67089 9.00074 5.70099 8.94852 5.74581 8.87093L4.44693 8.12064ZM4.40139 10.2681C4.9053 9.96764 5.32964 9.55057 5.63891 9.05227L4.36442 8.26126C4.18158 8.55586 3.93078 8.80231 3.63317 8.97977L4.40139 10.2681ZM1.67289 14.0987C1.67049 13.0436 1.67857 12.6878 1.77886 12.383L0.353989 11.9142C0.159984 12.5039 0.17073 13.1512 0.17289 14.1021L1.67289 14.0987ZM2.96404 9.352C2.13208 9.81304 1.56182 10.1187 1.14115 10.5751L2.24414 11.5917C2.46167 11.3557 2.76849 11.1753 3.69111 10.664L2.96404 9.352ZM1.77886 12.383C1.87545 12.0894 2.0342 11.8195 2.24414 11.5917L1.14115 10.5751C0.786495 10.9599 0.517741 11.4165 0.353989 11.9142L1.77886 12.383ZM3.6872 18.3322C2.77141 17.8227 2.46671 17.6431 2.25043 17.4086L1.14767 18.4254C1.56599 18.8791 2.1325 19.1838 2.95798 19.643L3.6872 18.3322ZM0.174752 14.9219C0.176897 15.8662 0.168925 16.5094 0.363381 17.0952L1.78699 16.6226C1.68649 16.3198 1.67713 15.9668 1.67475 14.9185L0.174752 14.9219ZM2.25043 17.4086C2.04185 17.1824 1.88388 16.9145 1.78699 16.6226L0.363381 17.0952C0.527426 17.5893 0.794821 18.0427 1.14767 18.4254L2.25043 17.4086ZM5.74984 20.1447C5.70171 20.0606 5.6691 20.0035 5.63442 19.9474L4.35894 20.7368C4.37697 20.766 4.39496 20.7972 4.44802 20.8899L5.74984 20.1447ZM3.48056 19.9337C3.57439 19.9859 3.60557 20.0033 3.63476 20.0209L4.40855 18.7359C4.35197 18.7018 4.29381 18.6696 4.20977 18.6229L3.48056 19.9337ZM5.63442 19.9474C5.32795 19.4522 4.90817 19.0367 4.40855 18.7359L3.63476 20.0209C3.9294 20.1983 4.17749 20.4436 4.35894 20.7368L5.63442 19.9474ZM6.28283 22.2176C6.28446 22.1211 6.28557 22.0566 6.28447 21.9917L4.78469 22.0173C4.78527 22.0513 4.78481 22.0876 4.78304 22.1923L6.28283 22.2176ZM4.44802 20.8899C4.50209 20.9843 4.51862 21.013 4.53411 21.0423L5.86046 20.3417C5.82973 20.2835 5.79571 20.2249 5.74984 20.1447L4.44802 20.8899ZM6.28447 21.9917C6.27465 21.416 6.12932 20.8507 5.86046 20.3417L4.53411 21.0423C4.69304 21.3432 4.77889 21.6772 4.78469 22.0173L6.28447 21.9917ZM8.23298 26.2715C7.32163 25.7464 7.01862 25.561 6.80527 25.3219L5.68606 26.3205C6.0984 26.7827 6.66138 27.0971 7.48405 27.5712L8.23298 26.2715ZM4.77301 22.7866C4.75699 23.7353 4.73696 24.3807 4.92156 24.972L6.35341 24.525C6.25797 24.2193 6.25503 23.8642 6.2728 22.8119L4.77301 22.7866ZM6.80527 25.3219C6.59946 25.0912 6.44534 24.8195 6.35341 24.525L4.92156 24.972C5.07738 25.4711 5.33832 25.9308 5.68606 26.3205L6.80527 25.3219ZM12.9206 26.6531C12.02 27.1924 11.7123 27.3665 11.4006 27.4364L11.7292 28.9C12.3321 28.7646 12.8796 28.426 13.6912 27.94L12.9206 26.6531ZM8.20404 27.9861C9.02441 28.4588 9.57803 28.7877 10.183 28.9129L10.487 27.444C10.174 27.3792 9.86175 27.2101 8.95297 26.6864L8.20404 27.9861ZM11.4006 27.4364C11.1001 27.5039 10.7887 27.5065 10.487 27.444L10.183 28.9129C10.6934 29.0185 11.2204 29.0142 11.7292 28.9L11.4006 27.4364ZM15.4985 25.774C15.4079 25.774 15.3465 25.7739 15.2849 25.7759L15.333 27.2751C15.365 27.2741 15.3987 27.274 15.4985 27.274V25.774ZM14.2072 27.6311C14.2903 27.5813 14.3212 27.5631 14.35 27.5471L13.6211 26.2361C13.568 26.2656 13.5168 26.2961 13.4366 26.3441L14.2072 27.6311ZM15.2849 25.7759C14.7013 25.7946 14.1311 25.9526 13.6211 26.2361L14.35 27.5471C14.6516 27.3794 14.9885 27.2862 15.333 27.2751L15.2849 25.7759ZM17.5649 26.3465C17.4864 26.2994 17.434 26.2679 17.3803 26.238L16.6499 27.5482C16.6782 27.5639 16.7079 27.5815 16.7929 27.6326L17.5649 26.3465ZM15.4985 27.274C15.5985 27.274 15.6329 27.2741 15.6649 27.2751L15.7131 25.7759C15.6514 25.7739 15.5891 25.774 15.4985 25.774V27.274ZM17.3803 26.238C16.8693 25.9531 16.2978 25.7947 15.7131 25.7759L15.6649 27.2751C16.0104 27.2863 16.348 27.3798 16.6499 27.5482L17.3803 26.238ZM22.0661 26.6878C21.1544 27.2169 20.8416 27.3878 20.5275 27.4534L20.8342 28.9217C21.4415 28.7949 21.9967 28.4624 22.819 27.9851L22.0661 26.6878ZM17.3121 27.9443C18.1271 28.4336 18.6768 28.7742 19.2822 28.9101L19.6106 27.4465C19.2976 27.3762 18.9881 27.2009 18.0842 26.6583L17.3121 27.9443ZM20.5275 27.4534C20.225 27.5166 19.9126 27.5142 19.6106 27.4465L19.2822 28.9101C19.7928 29.0246 20.3217 29.0287 20.8342 28.9217L20.5275 27.4534ZM24.7273 22.8217C24.7449 23.8698 24.7416 24.2242 24.6467 24.5293L26.0789 24.975C26.2624 24.3854 26.243 23.7425 26.2271 22.7965L24.7273 22.8217ZM23.5302 27.5723C24.3485 27.0974 24.9087 26.7824 25.3188 26.3208L24.1975 25.3245C23.9853 25.5633 23.684 25.7487 22.7773 26.275L23.5302 27.5723ZM24.6467 24.5293C24.5552 24.8231 24.4021 25.0942 24.1975 25.3245L25.3188 26.3208C25.6648 25.9314 25.924 25.4726 26.0789 24.975L24.6467 24.5293ZM25.2534 20.1302C25.2088 20.2074 25.1784 20.2599 25.1497 20.3134L26.4717 21.0223C26.4866 20.9945 26.5031 20.9656 26.5523 20.8805L25.2534 20.1302ZM26.2166 22.1772C26.2149 22.0759 26.2143 22.0451 26.2148 22.0141L24.7149 21.9919C24.714 22.0532 24.7154 22.1161 24.7169 22.2024L26.2166 22.1772ZM25.1497 20.3134C24.8726 20.8302 24.7236 21.4058 24.7149 21.9919L26.2148 22.0141C26.2199 21.6677 26.308 21.3275 26.4717 21.0223L25.1497 20.3134ZM26.7816 18.6293C26.7041 18.6722 26.6503 18.7019 26.5979 18.7331L27.3662 20.0214C27.3931 20.0054 27.4219 19.9894 27.5087 19.9413L26.7816 18.6293ZM26.5523 20.8805C26.5993 20.7992 26.6179 20.7678 26.6352 20.7398L25.3608 19.9488C25.3295 19.9991 25.3003 20.0491 25.2534 20.1302L26.5523 20.8805ZM26.5979 18.7331C26.0939 19.0336 25.67 19.4506 25.3608 19.9488L26.6352 20.7398C26.8182 20.4451 27.0686 20.1989 27.3662 20.0214L26.5979 18.7331ZM29.3272 14.9025C29.3296 15.9566 29.3208 16.3131 29.2205 16.6182L30.6453 17.0869C30.8393 16.4975 30.8293 15.851 30.8272 14.8991L29.3272 14.9025ZM28.0359 19.6491C28.868 19.188 29.4379 18.8824 29.8586 18.426L28.7556 17.4094C28.538 17.6454 28.2313 17.8259 27.3089 18.3371L28.0359 19.6491ZM29.2205 16.6182C29.1237 16.9121 28.9653 17.1819 28.7556 17.4094L29.8586 18.426C30.2135 18.0409 30.4817 17.5843 30.6453 17.0869L29.2205 16.6182ZM27.3124 10.6688C28.228 11.1782 28.5326 11.3579 28.7489 11.5925L29.8517 10.5757C29.4334 10.122 28.8674 9.81737 28.0417 9.35803L27.3124 10.6688ZM30.8253 14.0793C30.8232 13.1343 30.8306 12.4915 30.6362 11.9059L29.2126 12.3785C29.3131 12.6814 29.3229 13.0351 29.3253 14.0827L30.8253 14.0793ZM28.7489 11.5925C28.9576 11.8188 29.1157 12.0868 29.2126 12.3785L30.6362 11.9059C30.4721 11.4116 30.2044 10.9582 29.8517 10.5757L28.7489 11.5925ZM27.5076 9.06093C27.4213 9.01291 27.3915 8.99616 27.3639 8.97966L26.5931 10.2665C26.6456 10.2979 26.6988 10.3275 26.7784 10.3717L27.5076 9.06093ZM25.2541 8.87216C25.302 8.95518 25.3313 9.00507 25.3628 9.05569L26.637 8.26419C26.6191 8.23545 26.6 8.20333 26.553 8.12187L25.2541 8.87216ZM27.3639 8.97966C27.0682 8.80251 26.819 8.55725 26.637 8.26419L25.3628 9.05569C25.6707 9.55132 26.0923 9.96648 26.5931 10.2665L27.3639 8.97966Z" fill="url(#paint0_linear_988_483)" fill-opacity="0.85"/>
<defs>
<linearGradient id="paint0_linear_988_483" x1="-3.34615" y1="1.03854" x2="58.5769" y2="52.8655" gradientUnits="userSpaceOnUse">
<stop stop-color="#22A6B3"/>
<stop offset="1" stop-color="#BADC58"/>
</linearGradient>
</defs>
</svg>
