<svg width="36" height="36" viewBox="0 0 36 36" fill="none" xmlns="http://www.w3.org/2000/svg">
<path d="M18.0587 12.6949C18.0587 9.65966 20.6111 7.13489 23.6463 7.17628C24.7093 7.18855 25.7461 7.50756 26.6321 8.09496C27.5181 8.68236 28.2155 9.51315 28.6407 10.4875H33.5109L29.0546 14.9437C28.767 19.4201 26.7854 23.619 23.5128 26.6866C20.2401 29.7543 15.922 31.4604 11.4364 31.4582C7.02148 31.4582 5.91776 29.8026 5.91776 29.8026C5.91776 29.8026 10.3327 28.147 12.5401 24.8359C12.5401 24.8359 3.71031 20.421 5.91776 8.28001C5.91776 8.28001 11.4364 13.7986 18.0587 14.9024V12.6949Z" stroke="#22A6B3" stroke-width="1.4" stroke-linecap="round" stroke-linejoin="round"/>
</svg>
